<svg xmlns="http://www.w3.org/2000/svg" viewBox="0 0 120 120" fill="none">
  <!-- Outer Shield Outline -->
  <path
    d="M60 8 L108 35 V82 L60 112 L12 82 V35 Z"
    stroke="#233747"
    stroke-width="6"
    stroke-linecap="round"
    stroke-linejoin="round"
  />
  
  <!-- Interior Mesh structure -->
  <path
    d="M60 8 V58 M60 58 L12 35 M60 58 L108 35 M60 58 L12 82 M60 58 L108 82 M60 58 V112"
    stroke="#233747"
    stroke-width="3"
    stroke-linecap="round"
  />
  
  <!-- Subdivisions / Triangulation -->
  <path
    d="M36 21.5 L60 35 L84 21.5 M12 35 L36 63 L60 35 M108 35 L84 63 L60 35 M36 63 L60 97 L84 63 M12 82 L36 63 M108 82 L84 63"
    stroke="#2C4559"
    stroke-width="2.5"
    stroke-linecap="round"
    stroke-dasharray="2 2"
  />

  <!-- Highlighted Vector Paths (Fresh Green Glow) -->
  <path
    d="M36 21.5 L60 35 M60 35 V58 M60 58 L84 63 L108 35"
    stroke="#9AF376"
    stroke-width="4.5"
    stroke-linecap="round"
    stroke-linejoin="round"
  />

  <!-- Node Circles -->
  <circle cx="60" cy="8" r="6" fill="#F8FAFC" stroke="#0B131A" stroke-width="2" />
  <circle cx="60" cy="58" r="6" fill="#F8FAFC" stroke="#0B131A" stroke-width="2" />
  <circle cx="60" cy="112" r="6" fill="#F8FAFC" stroke="#0B131A" stroke-width="2" />
  
  <circle cx="36" cy="21.5" r="7.5" fill="#9AF376" stroke="#0B131A" stroke-width="2.5" />
  <circle cx="84" cy="21.5" r="7.5" fill="#9AF376" stroke="#0B131A" stroke-width="2.5" />
  <circle cx="84" cy="63" r="7.5" fill="#9AF376" stroke="#0B131A" stroke-width="2.5" />
</svg>
